<?xml version="1.0" encoding="UTF-8"?>
<svg width="30px" height="29px" viewBox="0 0 30 29" version="1.1" xmlns="http://www.w3.org/2000/svg" xmlns:xlink="http://www.w3.org/1999/xlink">
    <!-- Generator: sketchtool 52.6 (67491) - http://www.bohemiancoding.com/sketch -->
    <title>1A151120-3E32-460B-A451-AE6AA9579F35</title>
    <desc>Created with sketchtool.</desc>
    <g id="Page-1" stroke="none" stroke-width="1" fill="none" fill-rule="evenodd">
        <g id="Template-8" transform="translate(-32.000000, -288.000000)" fill="#FFFFFF">
            <path d="M47,288 C38.7124826,288 32,294.657297 32,302.867986 C32,309.438293 36.2975174,315.009935 42.2562413,316.974336 C43.0062413,317.114334 43.2812529,316.654108 43.2812529,316.259459 C43.2812529,315.906444 43.2687239,314.970898 43.262529,313.731484 C39.0900232,314.627923 38.21,311.736822 38.21,311.736822 C37.5275174,310.020753 36.5412761,309.561792 36.5412761,309.561792 C35.1825058,308.640147 36.6462413,308.659034 36.6462413,308.659034 C38.1525058,308.762453 38.9437819,310.191012 38.9437819,310.191012 C40.2812529,312.464337 42.4549652,311.807383 43.3125058,311.427899 C43.447471,310.465884 43.8337819,309.811458 44.2624826,309.439556 C40.9312297,309.067585 37.43,307.789064 37.43,302.092518 C37.43,300.469829 38.0112761,299.143424 38.9737819,298.103195 C38.8049884,297.727503 38.2987471,296.215744 39.1049884,294.168075 C39.1049884,294.168075 40.3612297,293.769634 43.2300232,295.69247 C44.4300232,295.362133 45.7049884,295.198193 46.9800232,295.190611 C48.2549884,295.198193 49.5300232,295.362133 50.7300232,295.69247 C53.5800232,293.769634 54.8362645,294.168075 54.8362645,294.168075 C55.6425058,296.215744 55.1362645,297.727503 54.9862645,298.103195 C55.9425058,299.143424 56.5237819,300.469829 56.5237819,302.092518 C56.5237819,307.804229 53.017471,309.061266 49.6800232,309.426919 C50.2049884,309.873243 50.6925058,310.784847 50.6925058,312.178091 C50.6925058,314.167697 50.6737819,315.766446 50.6737819,316.249349 C50.6737819,316.639013 50.9362645,317.104224 51.7049884,316.955449 C57.7062413,315.003686 62,309.428182 62,302.867986 C62,294.657297 55.2837587,288 47,288" id="Fill-1-Copy"></path>
        </g>
    </g>
</svg>