<?xml version="1.0" encoding="UTF-8"?>
<svg width="30px" height="24px" viewBox="0 0 30 24" version="1.1" xmlns="http://www.w3.org/2000/svg" xmlns:xlink="http://www.w3.org/1999/xlink">
    <!-- Generator: sketchtool 52.6 (67491) - http://www.bohemiancoding.com/sketch -->
    <title>8EA41920-AA6E-4A68-A0BB-DA0C7FD66072</title>
    <desc>Created with sketchtool.</desc>
    <g id="Page-1" stroke="none" stroke-width="1" fill="none" fill-rule="evenodd">
        <g id="Template-8" transform="translate(-32.000000, -340.000000)" fill="#FFFFFF">
            <path d="M62,342.841231 C60.884375,343.323077 59.695625,343.642462 58.45625,343.797538 C59.73125,343.048 60.704375,341.870154 61.161875,340.450462 C59.973125,341.148308 58.660625,341.641231 57.261875,341.916308 C56.133125,340.732923 54.524375,340 52.769375,340 C49.364375,340 46.623125,342.721231 46.623125,346.057231 C46.623125,346.537231 46.664375,346.998769 46.765625,347.438154 C41.6525,347.192615 37.128125,344.779692 34.08875,341.104 C33.558125,342.010462 33.246875,343.048 33.246875,344.164923 C33.246875,346.262154 34.34375,348.121231 35.97875,349.197538 C34.990625,349.179077 34.02125,348.896615 33.2,348.451692 L33.2,348.518154 C33.2,351.460923 35.331875,353.905231 38.1275,354.468308 C37.626875,354.603077 37.08125,354.667692 36.515,354.667692 C36.12125,354.667692 35.72375,354.645538 35.350625,354.564308 C36.1475,356.962462 38.40875,358.725538 41.0975,358.782769 C39.005,360.394462 36.348125,361.365538 33.471875,361.365538 C32.9675,361.365538 32.48375,361.343385 32,361.282462 C34.724375,363.012308 37.953125,364 41.435,364 C52.7525,364 58.94,354.769231 58.94,346.768 C58.94,346.500308 58.930625,346.241846 58.9175,345.985231 C60.138125,345.132308 61.16375,344.067077 62,342.841231" id="Fill-1-Copy-2"></path>
        </g>
    </g>
</svg>